<svg width="26" height="22" viewBox="0 0 26 22" fill="none" xmlns="http://www.w3.org/2000/svg">
<path id="Subtract" d="M11.3589 3.45653L12.0644 3.20179L11.3589 3.45653ZM10.7103 1.66036L10.0049 1.91509L10.7103 1.66036ZM2 1.75H9.76977V0.25H2V1.75ZM1.75 20.2597V2H0.25V20.2597H1.75ZM24 20.5097H2V22.0097H24V20.5097ZM24.25 5.11688V20.2597H25.75V5.11688H24.25ZM24 3.36688H12.2995V4.86688H24V3.36688ZM12.0644 3.20179L11.4157 1.40562L10.0049 1.91509L10.6535 3.71126L12.0644 3.20179ZM12.2995 3.36688C12.1942 3.36688 12.1001 3.30086 12.0644 3.20179L10.6535 3.71126C10.904 4.40475 11.5622 4.86688 12.2995 4.86688V3.36688ZM25.75 5.11688C25.75 4.15038 24.9665 3.36688 24 3.36688V4.86688C24.1381 4.86688 24.25 4.97881 24.25 5.11688H25.75ZM24 22.0097C24.9665 22.0097 25.75 21.2262 25.75 20.2597H24.25C24.25 20.3978 24.1381 20.5097 24 20.5097V22.0097ZM0.25 20.2597C0.25 21.2262 1.0335 22.0097 2 22.0097V20.5097C1.86193 20.5097 1.75 20.3978 1.75 20.2597H0.25ZM9.76977 1.75C9.8751 1.75 9.96913 1.81602 10.0049 1.91509L11.4157 1.40562C11.1653 0.712135 10.5071 0.25 9.76977 0.25V1.75ZM2 0.25C1.0335 0.25 0.25 1.0335 0.25 2H1.75C1.75 1.86193 1.86193 1.75 2 1.75V0.25Z" fill="#606060"/>
</svg>
