<svg width="27" height="25" viewBox="0 0 27 25" fill="none" xmlns="http://www.w3.org/2000/svg">
<path id="Union" fill-rule="evenodd" clip-rule="evenodd" d="M4.16667 0C2.27969 0 0.75 1.52969 0.75 3.41667V14.0833C0.75 15.9703 2.27969 17.5 4.16667 17.5H8.75V23.4167C8.75 23.72 8.93273 23.9935 9.21299 24.1096C9.49324 24.2257 9.81583 24.1615 10.0303 23.947L16.4773 17.5H22.8333C24.7203 17.5 26.25 15.9703 26.25 14.0833V3.41667C26.25 1.52969 24.7203 0 22.8333 0H4.16667ZM2.25 3.41667C2.25 2.35812 3.10812 1.5 4.16667 1.5H22.8333C23.8919 1.5 24.75 2.35812 24.75 3.41667V14.0833C24.75 15.1419 23.8919 16 22.8333 16H16.1667C15.9678 16 15.777 16.079 15.6363 16.2197L10.25 21.606V16.75C10.25 16.3358 9.91421 16 9.5 16H4.16667C3.10812 16 2.25 15.1419 2.25 14.0833V3.41667ZM8.5 9.75C9.05229 9.75 9.5 9.30229 9.5 8.75C9.5 8.19771 9.05229 7.75 8.5 7.75C7.94772 7.75 7.5 8.19771 7.5 8.75C7.5 9.30229 7.94772 9.75 8.5 9.75ZM14.5 8.75C14.5 9.30229 14.0523 9.75 13.5 9.75C12.9477 9.75 12.5 9.30229 12.5 8.75C12.5 8.19771 12.9477 7.75 13.5 7.75C14.0523 7.75 14.5 8.19771 14.5 8.75ZM18.5 9.75C19.0523 9.75 19.5 9.30229 19.5 8.75C19.5 8.19771 19.0523 7.75 18.5 7.75C17.9477 7.75 17.5 8.19771 17.5 8.75C17.5 9.30229 17.9477 9.75 18.5 9.75Z" fill="#606060"/>
</svg>
