<svg width="24" height="23" viewBox="0 0 24 23" fill="none" xmlns="http://www.w3.org/2000/svg">
<path id="Subtract" fill-rule="evenodd" clip-rule="evenodd" d="M2.66667 0C1.19391 0 0 1.19391 0 2.66667V13.3333C0 14.8061 1.19391 16 2.66667 16H8V22.6667L14.6667 16H21.3333C22.8061 16 24 14.8061 24 13.3333V2.66667C24 1.19391 22.8061 0 21.3333 0H2.66667ZM7 9C7.55228 9 8 8.55229 8 8C8 7.44772 7.55228 7 7 7C6.44772 7 6 7.44772 6 8C6 8.55229 6.44772 9 7 9ZM13 8C13 8.55229 12.5523 9 12 9C11.4477 9 11 8.55229 11 8C11 7.44772 11.4477 7 12 7C12.5523 7 13 7.44772 13 8ZM17 9C17.5523 9 18 8.55229 18 8C18 7.44772 17.5523 7 17 7C16.4477 7 16 7.44772 16 8C16 8.55229 16.4477 9 17 9Z" fill="white"/>
</svg>
