<svg width="26" height="26" viewBox="0 0 26 26" fill="none" xmlns="http://www.w3.org/2000/svg">
<path id="Union" fill-rule="evenodd" clip-rule="evenodd" d="M2 13C2 6.7868 7.0368 1.75 13.25 1.75C19.4632 1.75 24.5 6.7868 24.5 13C24.5 19.2132 19.4632 24.25 13.25 24.25C7.0368 24.25 2 19.2132 2 13ZM13.25 0.25C6.20837 0.25 0.5 5.95837 0.5 13C0.5 20.0416 6.20837 25.75 13.25 25.75C20.2916 25.75 26 20.0416 26 13C26 5.95837 20.2916 0.25 13.25 0.25ZM14 6C14 5.58579 13.6642 5.25 13.25 5.25C12.8358 5.25 12.5 5.58579 12.5 6V13V13.75H13.25H20.25C20.6642 13.75 21 13.4142 21 13C21 12.5858 20.6642 12.25 20.25 12.25H14V6Z" fill="#606060"/>
</svg>
