<svg width="26" height="26" viewBox="0 0 26 26" fill="none" xmlns="http://www.w3.org/2000/svg">
<path id="Vector" d="M2.16228 9.39923L1.70286 8.80642H1.70286L2.16228 9.39923ZM13 1L13.4594 0.407189L13 0.0511314L12.5406 0.407189L13 1ZM23.8377 9.39923L23.3783 9.99204L23.8377 9.39923ZM16.75 25H16V25.75H16.75V25ZM24.8469 10.375L24.1734 10.7051L24.1735 10.7051L24.8469 10.375ZM16.75 17.5H17.5V17.5L16.75 17.5ZM9.25 25V25.75H10V25H9.25ZM1.75 22V11.7705H0.25V22H1.75ZM2.62171 9.99204L13.4594 1.59281L12.5406 0.407189L1.70286 8.80642L2.62171 9.99204ZM12.5406 1.59281L23.3783 9.99204L24.2971 8.80642L13.4594 0.407189L12.5406 1.59281ZM24.25 11.7705V22H25.75V11.7705H24.25ZM22 24.25H16.75V25.75H22V24.25ZM24.25 22C24.25 22.7283 24.2484 23.1991 24.2018 23.546C24.158 23.8713 24.0874 23.9732 24.0303 24.0303L25.091 25.091C25.4732 24.7087 25.6223 24.2375 25.6884 23.7458C25.7516 23.2758 25.75 22.6859 25.75 22H24.25ZM22 25.75C22.6859 25.75 23.2758 25.7516 23.7458 25.6884C24.2375 25.6223 24.7087 25.4732 25.091 25.091L24.0303 24.0303C23.9732 24.0874 23.8713 24.158 23.546 24.2018C23.1991 24.2484 22.7283 24.25 22 24.25V25.75ZM23.3783 9.99204C24.0072 10.4795 24.1149 10.5856 24.1734 10.7051L25.5204 10.0449C25.2727 9.53978 24.8097 9.20362 24.2971 8.80642L23.3783 9.99204ZM25.75 11.7705C25.75 11.1221 25.768 10.5501 25.5204 10.0449L24.1735 10.7051C24.232 10.8247 24.25 10.9748 24.25 11.7705H25.75ZM1.75 11.7705C1.75 10.9748 1.76796 10.8247 1.82655 10.7051L0.479648 10.0449C0.232038 10.5501 0.25 11.1221 0.25 11.7705H1.75ZM1.70286 8.80642C1.19034 9.20362 0.727258 9.53978 0.479648 10.0449L1.82655 10.7051C1.88514 10.5856 1.99278 10.4795 2.62171 9.99204L1.70286 8.80642ZM0.25 22C0.25 22.6859 0.248407 23.2758 0.311605 23.7458C0.377704 24.2375 0.526763 24.7087 0.90901 25.091L1.96967 24.0303C1.91258 23.9732 1.84197 23.8713 1.79823 23.546C1.75159 23.1991 1.75 22.7283 1.75 22H0.25ZM4 24.25C3.27169 24.25 2.80091 24.2484 2.45403 24.2018C2.12872 24.158 2.02676 24.0874 1.96967 24.0303L0.90901 25.091C1.29126 25.4732 1.76252 25.6223 2.25416 25.6884C2.72422 25.7516 3.3141 25.75 4 25.75V24.25ZM13 14.5C13.6453 14.5 14.4068 14.6645 14.9874 15.1C15.5317 15.5082 15.9999 16.2142 16 17.5L17.5 17.5C17.4999 15.7858 16.8431 14.6168 15.8874 13.9C14.9681 13.2105 13.8547 13 13 13V14.5ZM16 17.5V25H17.5V17.5H16ZM13 13C12.1453 13 11.0319 13.2105 10.1125 13.9C9.15678 14.6168 8.5 15.7858 8.5 17.5H10C10 16.2142 10.4682 15.5082 11.0125 15.1C11.5931 14.6645 12.3547 14.5 13 14.5V13ZM8.5 17.5V25H10V17.5H8.5ZM9.25 24.25H4V25.75H9.25V24.25Z" fill="#606060"/>
</svg>
