<svg width="24" height="25" viewBox="0 0 24 25" fill="none" xmlns="http://www.w3.org/2000/svg">
<g id="home_pressed">
<path id="Vector" d="M0 11.7705V22C0 23.4142 0 24.1213 0.43934 24.5607C0.87868 25 1.58579 25 3 25H8.25V17.5C8.25 14.5 10.5 13.75 12 13.75C13.5 13.75 15.7498 14.5 15.75 17.5V25H21C22.4142 25 23.1213 25 23.5607 24.5607C24 24.1213 24 23.4142 24 22V11.7705C24 11.0484 24 10.6874 23.8469 10.375C23.6938 10.0627 23.4084 9.84154 22.8377 9.39923L12 1L1.16228 9.39923C0.59156 9.84154 0.306197 10.0627 0.153099 10.375C0 10.6874 0 11.0484 0 11.7705Z" fill="white"/>
</g>
</svg>
