<svg width="83" height="15" viewBox="0 0 83 15" fill="none" xmlns="http://www.w3.org/2000/svg">
<g id="Union">
<path fill-rule="evenodd" clip-rule="evenodd" d="M5.53682 0H0V14.4877H5.73301C6.93193 14.4877 7.92739 14.3243 8.7194 13.9975C9.51142 13.664 10.0927 13.2104 10.4633 12.6367C10.8411 12.0631 11.03 11.3994 11.03 10.6457C11.03 9.91862 10.8702 9.28829 10.5505 8.75467C10.2308 8.21438 9.82386 7.79749 9.32976 7.504C8.83566 7.21051 8.3343 7.05043 7.82566 7.02375V6.88367C8.59588 6.69023 9.21714 6.35339 9.68944 5.87313C10.1617 5.38621 10.3979 4.70918 10.3979 3.84205C10.3979 3.10832 10.2162 2.45131 9.85293 1.871C9.49688 1.29069 8.95555 0.833778 8.22894 0.500267C7.50232 0.166756 6.60495 0 5.53682 0ZM8.29433 12.2665C7.7421 12.6801 6.88106 12.8869 5.71121 12.8869H1.96187V7.90422H5.8202C6.47416 7.90422 7.05182 8.02761 7.55318 8.27441C8.06182 8.51454 8.45055 8.84472 8.7194 9.26494C8.99552 9.67849 9.13357 10.1321 9.13357 10.6257C9.13357 11.306 8.85383 11.853 8.29433 12.2665ZM7.01912 6.04322C6.55408 6.24333 6.03819 6.34338 5.47143 6.34338H1.96187V1.60085H5.53682C6.52502 1.60085 7.2698 1.81097 7.77117 2.23119C8.27253 2.65141 8.52322 3.19504 8.52322 3.86206C8.52322 4.35566 8.38879 4.79256 8.11994 5.17276C7.8511 5.54629 7.48415 5.83645 7.01912 6.04322Z" fill="#FE7B63"/>
<path fill-rule="evenodd" clip-rule="evenodd" d="M15.6077 14.0175C16.4433 14.4777 17.4243 14.7078 18.5505 14.7078C19.3498 14.7078 20.0728 14.5944 20.7195 14.3677C21.3734 14.1342 21.9184 13.8107 22.3544 13.3971C22.7976 12.9769 23.1137 12.4933 23.3026 11.9464H21.2971C21.0574 12.3132 20.7049 12.6134 20.2399 12.8469C19.7821 13.0736 19.219 13.187 18.5505 13.187C17.8457 13.187 17.2208 13.0503 16.6759 12.7768C16.1382 12.4967 15.7131 12.0898 15.4006 11.5562C15.0882 11.0225 14.9174 10.3789 14.8884 9.62513H23.477V8.90475C23.477 7.63741 23.2336 6.60019 22.7467 5.79309C22.2672 4.97932 21.6423 4.39234 20.8721 4.03215C20.1019 3.66529 19.2699 3.48186 18.3761 3.48186C17.3153 3.48186 16.3779 3.72198 15.5641 4.20224C14.7576 4.67583 14.1291 5.34285 13.6786 6.20331C13.2353 7.0571 13.0137 8.03762 13.0137 9.14488C13.0137 10.2521 13.2353 11.226 13.6786 12.0664C14.1291 12.9069 14.7721 13.5572 15.6077 14.0175ZM21.1772 6.54349C21.4461 7.01708 21.5805 7.55736 21.5805 8.16435H14.8993C14.9429 7.59738 15.11 7.07377 15.4006 6.59352C15.6986 6.10659 16.1018 5.71972 16.6105 5.4329C17.1264 5.14608 17.7149 5.00267 18.3761 5.00267C19.0083 5.00267 19.5678 5.13941 20.0546 5.41289C20.5415 5.68637 20.9157 6.06323 21.1772 6.54349Z" fill="#FE7B63"/>
<path fill-rule="evenodd" clip-rule="evenodd" d="M30.8885 14.7078C29.7622 14.7078 28.7813 14.4777 27.9457 14.0175C27.1101 13.5572 26.467 12.9069 26.0165 12.0664C25.5733 11.226 25.3517 10.2521 25.3517 9.14488C25.3517 8.03762 25.5733 7.0571 26.0165 6.20331C26.467 5.34285 27.0955 4.67583 27.9021 4.20224C28.7159 3.72198 29.6532 3.48186 30.7141 3.48186C31.6078 3.48186 32.4398 3.66529 33.21 4.03215C33.9802 4.39234 34.6051 4.97932 35.0847 5.79309C35.5715 6.60019 35.8149 7.63741 35.8149 8.90475V9.62513H27.2263C27.2554 10.3789 27.4262 11.0225 27.7386 11.5562C28.051 12.0898 28.4761 12.4967 29.0138 12.7768C29.5588 13.0503 30.1837 13.187 30.8885 13.187C31.557 13.187 32.1201 13.0736 32.5779 12.8469C33.0429 12.6134 33.3953 12.3132 33.6351 11.9464H35.6406C35.4516 12.4933 35.1356 12.9769 34.6923 13.3971C34.2564 13.8107 33.7114 14.1342 33.0574 14.3677C32.4107 14.5944 31.6878 14.7078 30.8885 14.7078ZM33.9185 8.16435C33.9185 7.55736 33.7841 7.01708 33.5152 6.54349C33.2536 6.06323 32.8794 5.68637 32.3926 5.41289C31.9058 5.13941 31.3463 5.00267 30.7141 5.00267C30.0529 5.00267 29.4643 5.14608 28.9484 5.4329C28.4398 5.71972 28.0365 6.10659 27.7386 6.59352C27.448 7.07377 27.2808 7.59738 27.2372 8.16435H33.9185Z" fill="#FE7B63"/>
<path d="M68.2424 14.4877H70.1171V0H68.2424V14.4877Z" fill="#FE7B63"/>
<path fill-rule="evenodd" clip-rule="evenodd" d="M56.9835 9.02481C56.1479 9.48506 55.7301 10.2788 55.7301 11.4061C55.7301 12.0931 55.9081 12.6901 56.2641 13.197C56.6202 13.6973 57.1034 14.0808 57.7137 14.3477C58.3241 14.6145 59.0071 14.7479 59.7628 14.7479C60.4022 14.7479 60.9617 14.6612 61.4413 14.4877C61.9281 14.3076 62.3205 14.0875 62.6184 13.8274C62.9236 13.5606 63.1488 13.2871 63.2941 13.0069H63.3813V14.4877H65.2342V7.32391C65.2342 5.82311 64.7764 4.80923 63.8609 4.28228C62.9454 3.74867 61.9208 3.48186 60.7873 3.48186C59.9299 3.48186 59.1561 3.60859 58.4658 3.86206C57.7828 4.10886 57.2342 4.45571 56.82 4.90261C56.4058 5.34952 56.1588 5.86313 56.0788 6.44344H58.0407C58.1788 6.00987 58.4767 5.65968 58.9344 5.39288C59.3922 5.1194 59.9808 4.98266 60.7001 4.98266C61.5793 4.98266 62.2442 5.17276 62.6947 5.55296C63.1525 5.92649 63.3813 6.46345 63.3813 7.16382V8.04429C62.9672 8.05763 62.4513 8.08098 61.8336 8.11433C61.2233 8.14101 60.6711 8.17102 60.177 8.20438C58.8909 8.29109 57.8264 8.56457 56.9835 9.02481ZM58.2805 12.7668C57.83 12.4666 57.6047 12.0398 57.6047 11.4861C57.6047 10.9125 57.8482 10.4756 58.335 10.1754C58.8218 9.87527 59.5085 9.69851 60.3949 9.64514L63.3813 9.45504V10.5456C63.3813 11.0125 63.2506 11.4494 62.989 11.8563C62.7274 12.2632 62.3459 12.59 61.8445 12.8368C61.3504 13.0836 60.7655 13.207 60.0898 13.207C59.3414 13.207 58.7383 13.0603 58.2805 12.7668Z" fill="#FE7B63"/>
<path d="M73.1035 0H74.9781V8.42449H75.1961L80.3188 3.62193H82.6294L77.6376 8.27441L83 14.4877H80.624L76.2316 9.36499L74.9781 10.4356V14.4877H73.1035V0Z" fill="#FE7B63"/>
<path fill-rule="evenodd" clip-rule="evenodd" d="M40.7303 3.26575C40.016 4.33128 39.5469 5.85185 39.5469 7.57204C39.5469 9.29223 40.016 10.8128 40.7303 11.8783C41.4529 12.9563 42.3404 13.4632 43.1741 13.4632C43.7471 13.4632 44.3456 13.2237 44.8984 12.724L44.8856 12.7048L44.8685 12.679C44.0209 11.3939 43.5074 9.68506 43.464 7.82817H43.4531C43.4531 7.77034 43.4556 7.7073 43.4612 7.64018C43.4611 7.61749 43.461 7.59477 43.461 7.57204H43.4679C43.506 7.23477 43.6258 6.81064 43.9184 6.42701C44.3253 5.89337 45.0045 5.52295 45.9643 5.52295C46.9242 5.52295 47.6034 5.89337 48.0103 6.42701C48.3028 6.81064 48.4227 7.23477 48.4607 7.57204H48.4755C48.4755 7.63132 48.475 7.69046 48.4741 7.74946C48.4751 7.77663 48.4755 7.8029 48.4755 7.82817H48.4725C48.4284 9.68727 47.9058 11.3979 47.0438 12.6838C47.0331 12.6997 47.0223 12.7156 47.0115 12.7315C47.5533 13.228 48.1367 13.4632 48.6905 13.4632C49.4976 13.4632 50.3677 12.9636 51.0804 11.8831C51.7837 10.8168 52.2458 9.29447 52.2458 7.57204C52.2458 5.84961 51.7837 4.3273 51.0804 3.26101C50.3677 2.18048 49.4977 1.6809 48.6905 1.6809V0.144077C50.3092 0.144077 51.6354 1.13528 52.5125 2.46504C53.3989 3.80903 53.92 5.6165 53.92 7.57204C53.92 9.52758 53.3989 11.335 52.5125 12.679C51.6354 14.0088 50.3092 15 48.6905 15C47.6394 15 46.7116 14.5821 45.9501 13.9249C45.1766 14.5832 44.2362 15 43.1741 15C41.5422 15 40.1976 14.0161 39.3045 12.6838C38.403 11.339 37.8727 9.52982 37.8727 7.57204C37.8727 5.61426 38.403 3.80505 39.3045 2.4603C40.1976 1.12799 41.5422 0.144077 43.1741 0.144077V1.6809C42.3404 1.6809 41.4529 2.18778 40.7303 3.26575ZM45.9609 11.2949C45.4682 10.3197 45.1552 9.07924 45.1361 7.70561C45.1545 7.5722 45.2028 7.4225 45.2899 7.30832C45.3712 7.20161 45.529 7.05976 45.9643 7.05976C46.3996 7.05976 46.5574 7.20161 46.6388 7.30832C46.7402 7.44131 46.7891 7.62248 46.7993 7.76999C46.771 9.11815 46.4546 10.3353 45.9609 11.2949Z" fill="#FE7B63"/>
</g>
</svg>
