<svg width="106" height="122" viewBox="0 0 106 122" fill="none" xmlns="http://www.w3.org/2000/svg">
<g id="Group 7">
<path id="Subtract" fill-rule="evenodd" clip-rule="evenodd" d="M105.828 30.5L53 0L0.172485 30.5V91.5L53 122L105.828 91.5V30.5ZM35.8692 45.727C33.2897 49.8834 31.5957 55.8149 31.5957 62.525C31.5957 69.2351 33.2897 75.1665 35.8692 79.323C38.4788 83.5279 41.6839 85.5052 44.6946 85.5052C46.7638 85.5052 48.9249 84.5711 50.9214 82.6217L50.882 82.5582C50.8591 82.521 50.8362 82.4837 50.8134 82.4464C47.7525 77.4334 45.8979 70.7675 45.7413 63.5241H45.7022C45.7022 63.2985 45.7109 63.0526 45.7313 62.7908C45.7308 62.7023 45.7305 62.6137 45.7305 62.525H45.7555C45.8931 61.2094 46.3257 59.5549 47.3821 58.0585C48.8516 55.9769 51.3045 54.5319 54.7706 54.5319C58.2367 54.5319 60.6896 55.9769 62.159 58.0585C63.2154 59.5549 63.6481 61.2094 63.7856 62.525H63.839C63.839 62.7562 63.8373 62.9869 63.8338 63.2171C63.8374 63.3231 63.839 63.4255 63.839 63.5241H63.8281C63.6689 70.7761 61.7816 77.4488 58.6687 82.4649L58.6269 82.532L58.5891 82.5923L58.5522 82.6509C60.5088 84.5879 62.6155 85.5052 64.6152 85.5052C67.5299 85.5052 70.6721 83.5564 73.2457 79.3415C75.7854 75.1821 77.4545 69.2439 77.4545 62.525C77.4545 55.8061 75.7854 49.8679 73.2457 45.7085C70.6721 41.4936 67.5302 39.5448 64.6154 39.5448V33.55C70.4609 33.55 75.25 37.4165 78.4172 42.6036C81.6184 47.8462 83.5001 54.8968 83.5001 62.525C83.5001 70.1532 81.6184 77.2037 78.4172 82.4464C75.25 87.6335 70.4607 91.5 64.6152 91.5C60.8194 91.5 57.4692 89.8697 54.7191 87.3062C51.926 89.8742 48.53 91.5 44.6946 91.5C38.8015 91.5 33.9457 87.662 30.7204 82.4649C27.465 77.2193 25.5501 70.1619 25.5501 62.525C25.5501 54.8881 27.465 47.8307 30.7204 42.5851C33.9457 37.388 38.8015 33.55 44.6946 33.55V39.5448C41.6839 39.5448 38.4788 41.5221 35.8692 45.727ZM54.758 77.0472C52.9789 73.2432 51.8485 68.4043 51.7795 63.046C51.846 62.5256 52.0205 61.9417 52.3349 61.4963C52.6287 61.08 53.1987 60.5267 54.7706 60.5267C56.3425 60.5267 56.9124 61.08 57.2063 61.4963C57.5725 62.015 57.7489 62.7218 57.7859 63.2972C57.6836 68.556 56.5409 73.3037 54.758 77.0472Z" fill="#FE7B63"/>
</g>
</svg>
